<svg height="512" viewBox="0 0 53 60" width="512" xmlns="http://www.w3.org/2000/svg"><g id="Page-1" fill="none" fill-rule="evenodd"><g id="050---Fish-Bowl" fill-rule="nonzero"><g id="Icons" transform="translate(1 1)"><path id="Shape" d="m42 39.42c0 11.6-9.4 18.58-21 18.58s-21-6.98-21-18.58c-.00185829-1.231282.1119753-2.4600151.34-3.67 1.47 1.16 1.89 3.25 4.66 3.25 3.84 0 4.17-4 8-4s3.17 4 7 4 4.17-4 8-4 3.83 4 7.67 4c2.83 0 4.23-2.19 5.98-3.33.2308915 1.2366955.3480473 2.4919368.35 3.75z" fill="#a4c2f7"/><path id="Shape" d="m41.65 35.67c-.917.6-1.743 1.478-2.724 2.186.041.522.074 1.044.074 1.564 0 11.094-8.6 17.945-19.5 18.523.5.027.994.057 1.5.057 11.6 0 21-6.98 21-18.58-.0019527-1.2580632-.1191085-2.5133045-.35-3.75z" fill="#7facfa"/><path id="Shape" d="m41.65 35.67c-1.75 1.14-3.15 3.33-5.98 3.33-3.84 0-3.84-4-7.67-4s-4.16 4-8 4-3.17-4-7-4-4.16 4-8 4c-2.77 0-3.19-2.09-4.66-3.25.81676684-4.3185361 2.71216946-8.3604564 5.51-11.75l-3.72-5.52c-.1689126-.3086899-.16315149-.6834401.01517017-.9867919.17832166-.3033517.50295712-.4906555.85482983-.4932081h36c.3518727.0025526.6765082.1898564.8548298.4932081.1783217.3033518.1840828.678102.0151702.9867919l-3.72 5.52c2.7760862 3.3715831 4.6665734 7.3828532 5.5 11.67z" fill="#e8edfc"/><path id="Shape" d="m36.15 24 3.72-5.52c.1689126-.3086899.1631515-.6834401-.0151702-.9867919-.1783216-.3033517-.5029571-.4906555-.8548298-.4932081h-3c.3518727.0025526.6765082.1898564.8548298.4932081.1783217.3033518.1840828.678102.0151702.9867919l-3.72 5.52c2.7760862 3.3715831 4.6665734 7.3828532 5.5 11.67-1.4.914-2.594 2.486-4.466 3.08.4770693.1689479.9799111.2535444 1.486.25 2.83 0 4.23-2.19 5.98-3.33-.8334266-4.2871468-2.7239138-8.2984169-5.5-11.67z" fill="#cad9fc"/><path id="Shape" d="m51 7c0 2.76-4.25 5-9.5 5-.0502079.001652-.1004557-.0016979-.15-.01h-.01l-1.825 1.1c-.3093428.1858552-.694827.1906188-1.0086681.0124648-.3138412-.178154-.5073468-.5115852-.5063319-.8724648-.0033922-.3391751-.2378421-.6322375-.568-.71-1.323698-.3018775-2.5770779-.8552386-3.692-1.63-.6333004 1.8620485-2.3832046 3.1131294-4.35 3.11h-.02c-.3686509.0017854-.7083844-.1994034-.884036-.5235224s-.1587287-.7185927.044036-1.0264776c.3163551-.4161596.4820634-.9273875.47-1.45 0-1.5-1-1.5-1-2.99 0-1.51 1-1.51 1-3.01.0137884-.52755139-.155855-1.04354999-.48-1.46-.2017791-.30638716-.2195909-.69866414-.0464086-1.02207687.1731823-.32341272.5095512-.52603162.8764086-.52792313h.01c1.9843228-.01959436 3.7560347 1.23957214 4.39 3.12 1.1102191-.77725681 2.3611644-1.33089264 3.683-1.63.3297611-.07815558.5637197-.37111962.567-.71.0000685-.36034319.1940002-.6927828.5076399-.87020142.3136396-.17741862.6984775-.17237533 1.0073601.01320142l1.825 1.1h.01c.0494438-.00930726.0996922-.01366212.15-.013 5.25 0 9.5 2.24 9.5 5z" fill="#e8edfc"/><path id="Shape" d="m41.5 2c-.0502079-.00165198-.1004557.00169786-.15.01h-.01l-1.825-1.1c-.3093428-.18585515-.694827-.19061885-1.0086681-.01246481-.3138412.17815403-.5073468.51158522-.5063319.87246481 0 .011-.005.021-.006.032l.346.208h.01c.0495443-.00830214.0997921-.01165198.15-.01 5.25 0 9.5 2.24 9.5 5s-4.25 5-9.5 5c-.0502079.001652-.1004557-.0016979-.15-.01h-.01l-.346.208c0 .011.006.021.006.032.0000685.3603432.1940002.6927828.5076399.8702014.3136396.1774186.6984775.1723754 1.0073601-.0132014l1.825-1.1h.01c.0495443.0083021.0997921.011652.15.01 5.25 0 9.5-2.24 9.5-5s-4.25-4.997-9.5-4.997z" fill="#cad9fc"/><g fill="#428dff"><path id="Shape" d="m5.781 47.14c-.3481562.000019-.67126246-.1810417-.853-.478-2.176-3.553-2.528-8.17-.99-13 .16789458-.5263273.73067264-.8168945 1.25699999-.649.52632735.1678946.81689455.7306726.64900001 1.257-1.359 4.267-1.078 8.3.789 11.347.18932186.3085376.19711981.6953015.02038826 1.0112195-.17673156.315918-.51039623.5116601-.87238826.5117805z"/><path id="Shape" d="m6.569 31.05c-.35472441-.000965-.68239016-.1897779-.8611006-.4961974s-.18171632-.684581-.0078994-.9938026c.28-.5.569-.983.879-1.468.19220889-.3011749.53049212-.4769297.88742167-.4610594s.67827933.2209548.843.538c.16472066.3170452.14778722.6978845-.04442167.9990594-.289.454-.561.908-.821 1.372-.17764987.3160482-.51244723.5111872-.875.51z"/></g></g><g id="Icons_copy_2" fill="#fff" transform="translate(0 18)"><path id="Shape" d="m22 41c.5 0 1-.017 1.493-.042-13.429-.691-21.36-10.602-19.153-22.208.81676684-4.3185361 2.71216946-8.3604564 5.51-11.75l-3.72-5.52c-.1689126-.3086899-.16315149-.68344007.01517017-.98679186.17832166-.30335178.50295712-.49065556.85482983-.49320814h-3c-.35187271.00255258-.67650817.18985636-.85482983.49320814-.17832166.30335179-.18408277.67810196-.01517017.98679186l3.72 5.52c-2.79783054 3.3895436-4.69323316 7.4314639-5.51 11.75-2.288 12.034 6.321 22.25 20.66 22.25z"/></g><g id="Icons_copy"><path id="Shape" d="m3.547 47.77-1.815.84c-1.15784214-2.5742495-1.74852982-5.3673974-1.732-8.19h2c-.01674292 2.5325253.51082884 5.039088 1.547 7.35z" fill="#fff"/><g fill="#428dff"><circle id="Oval" cx="46" cy="7" r="1"/><path id="Shape" d="m10.234 57.281c3.6534293 1.8194897 7.6846938 2.751073 11.766 2.719 12.953 0 22-8.052 22-19.58-.0068657-1.2979764-.1293498-2.5927608-.366-3.869 0-.032-.007-.063-.014-.095-.8194234-4.1884036-2.6161624-8.1241666-5.244-11.487l3.366-5c.3424616-.6183212.33312-1.3714871-.0245721-1.9811242-.3576921-.6096372-1.0106083-.9851989-1.7174279-.9878758h-36c-.70786713-.0034827-1.36385635.3708237-1.721.982-.3715559.6381358-.36349411 1.4285752.021 2.059l3.315 4.911c-3.50043164 4.4101675-5.47125797 9.839329-5.615 15.468 0 .5522847.44771525 1 1 1s1-.4477153 1-1c.14969355-5.2639164 2.02961236-10.3318598 5.349-14.42h5.651c.5522847 0 1-.4477153 1-1s-.4477153-1-1-1h-5.619l-3.381-5 36.04-.078-3.422 5.078h-17.618c-.5522847 0-1 .4477153-1 1s.4477153 1 1 1h17.651c2.3866064 3.0028732 4.0578781 6.5099106 4.887 10.255-.3871775.3299919-.7544863.6826083-1.1 1.056-.908.943-1.624 1.689-3.108 1.689s-2.211-.747-3.118-1.694c-1.0638069-1.4479515-2.7532673-2.3031246-4.55-2.3031246s-3.4861931.8551731-4.55 2.3031246c-.912.947-1.628 1.694-3.122 1.694s-2.2-.746-3.107-1.691c-1.0888941-1.4204006-2.763674-2.2697454-4.553-2.309-1.7868688.0385567-3.4601615.8842112-4.551 2.3-.35410755.391476-.74119795.7518012-1.157 1.077-.28992103.2104294-.44555634.5595453-.40827962.915839.03727673.3562937.26180226.6656357.589.8115.32719775.1458642.70735859.1060904.99727962-.104339.5133713-.392258.9900014-.8303962 1.424-1.309.906-.944 1.623-1.69 3.108-1.69s2.2.746 3.108 1.691c1.0884421 1.4192146 2.7619052 2.2680834 4.55 2.308 1.7925961-.0382231 3.4709854-.8879008 4.563-2.31.9-.944 1.62-1.69 3.107-1.69s2.2.746 3.108 1.69c1.0638335 1.450992 2.7550344 2.30868 4.5542339 2.3096673 1.7991994.0009874 3.4913407-.8548438 4.5567661-2.3046673l.033-.033c.054.59.088 1.177.088 1.758 0 10.351-8.225 17.58-20 17.58-3.7606776.031716-7.4759656-.8226804-10.845-2.494-1.6466932-.8460372-3.15333668-1.9405208-4.467-3.245-1.28138319-1.3186073-2.34197086-2.8350349-3.141-4.491-.21617-.4895207-.78419587-.7161977-1.278-.51-.25230012.105359-.45148721.3079597-.55254419.5620135-.10105697.2540539-.09545343.5381157.01554419.7879865.89671918 1.8668145 2.09096269 3.5754338 3.536 5.059 1.4593612 1.452653 3.13446571 2.6710335 4.966 3.612z"/><path id="Shape" d="m1.425 45.4c-.35726559.0017863-.6883456-.187162-.8685254-.4956699s-.18208579-.6897057-.005-1c.17708579-.3102942.50625981-.5025438.8635254-.5043301h.01c.55228475 0 1 .4477153 1 1s-.44771525 1-1 1z"/><path id="Shape" d="m53 8c0-3.345-4.56-5.97-10.4-6l-1.57-.944c-.5850442-.35172282-1.3090749-.38076009-1.9204066-.07701796-.6113316.30374212-1.0255228.89830863-1.0985934 1.57701796-.9883488.25033266-1.9426603.61970022-2.842 1.1-1.015837-1.65965951-2.8231381-2.66998966-4.769-2.666h-.058c-.7371909.00550972-1.4115772.41611711-1.7549136 1.06849804-.3433364.65238092-.2999454 1.44074164.1129136 2.05150196.2074157.24891531.314404.566314.3.89.0093391.34541664-.1088473.68217669-.332.946-.4436759.59577303-.6784703 1.32124555-.668 2.064-.0101749.73717501.2247924 1.45685018.668 2.046.2231852.2630197.3414102.5991776.332.944.0129093.3265193-.093761.6465301-.3.9-.4083847.610539-.4468374 1.3965128-.1 2.044.3544414.6569283 1.0435903 1.0634877 1.79 1.056 1.945417.003175 3.7525203-1.0054849 4.771-2.663.9015993.4834402 1.8586169.8555018 2.85 1.108.0732315.6783949.4872691 1.2726448 1.0982961 1.5763362.6110271.3036914 1.3347203.274914 1.9197039-.0763362l1.571-.945c4.962-.026 8.989-1.929 10.09-4.552.0190348-.03808111.0360582-.0771348.051-.117.1670812-.42407166.2548703-.87521951.259-1.331zm-10.462 4.008c-.2449645-.0456037-.498158-.001215-.713.125l-1.825 1.096c-.0035149-.7975971-.5500689-1.4901739-1.325-1.679-1.1973883-.2707892-2.3318269-.7684215-3.342-1.466-.2571154-.18908466-.5890427-.244083-.8934035-.14803151-.3043607.09605151-.5445915.33161411-.6465965.63403151-.5026266 1.4627131-1.8833766 2.440912-3.43 2.43.4254718-.5789976.6492471-1.2815889.637-2 .0103759-.740906-.225257-1.46433396-.67-2.057-.2216497-.25945736-.3392275-.59188191-.33-.933-.0086028-.34897954.110122-.68915795.334-.957.4421373-.59226066.676265-1.31397853.666-2.053.0123002-.72041455-.2086941-1.42549183-.63-2.01 1.5506729-.01198207 2.933868.97278828 3.43 2.442.1028774.30306325.3446001.53857506.6502381.63353053.3056379.09495548.6382612.03788127.8947619-.15353053 1.004931-.6975806 2.1353898-1.19404522 3.329-1.462.7755336-.18811499 1.3227312-.88098438 1.326-1.679l1.825 1.1c.1591518.09354773.3403911.14291388.525.143.0503762.00123634.1007227-.00346267.15-.014 5.009 0 8.5 2.108 8.5 4h-2c-.5522847 0-1 .44771525-1 1s.4477153 1 1 1h.752c-2.1318505 1.4152939-4.6575031 2.1183034-7.214 2.008z"/><path id="Shape" d="m25 5c-.472 0-11.614.1-16.848 8.47-.29271089.469442-.14944201 1.0872891.32000002 1.38.46944202.2927109 1.08728905.149442 1.37999998-.32 4.635-7.423 15.048-7.53 15.148-7.53.5522847 0 1-.44771525 1-1s-.4477153-1-1-1z"/><path id="Shape" d="m25 9c-.266 0-6.537.05-9.8 4.4-.3313708.4418278-.2418278 1.0686292.2 1.4s1.0686292.2418278 1.4-.2c2.656-3.541 8.146-3.6 8.2-3.6.5522847 0 1-.4477153 1-1 0-.55228475-.4477153-1-1-1z"/></g></g></g></g></svg>