<?xml version="1.0" standalone="no"?>
<!DOCTYPE svg PUBLIC "-//W3C//DTD SVG 20010904//EN"
 "http://www.w3.org/TR/2001/REC-SVG-20010904/DTD/svg10.dtd">
<svg version="1.0" xmlns="http://www.w3.org/2000/svg"
 width="512.000000pt" height="512.000000pt" viewBox="0 0 512.000000 512.000000"
 preserveAspectRatio="xMidYMid meet">

<g transform="translate(0.000000,512.000000) scale(0.100000,-0.100000)"
fill="#000000" stroke="none">
<path d="M2283 5102 c-93 -33 -155 -91 -205 -190 -25 -51 -32 -79 -36 -144 -9
-157 34 -247 192 -404 93 -92 266 -235 345 -286 66 -41 113 -38 187 11 163
109 398 326 462 426 48 73 65 141 60 243 -2 72 -8 98 -34 152 -39 81 -99 144
-172 178 -49 23 -70 27 -147 27 -75 0 -99 -5 -145 -26 -31 -14 -72 -40 -91
-57 l-36 -31 -27 28 c-72 75 -246 111 -353 73z m218 -162 c45 -23 63 -48 85
-112 25 -76 75 -98 128 -57 14 11 26 28 26 37 0 8 9 35 21 59 30 62 92 96 175
97 54 1 68 -3 105 -29 55 -39 92 -108 97 -185 6 -83 -26 -147 -125 -250 -72
-76 -307 -274 -339 -287 -39 -15 -418 325 -460 412 -27 57 -26 176 3 230 57
107 172 142 284 85z"/>
<path d="M1464 4780 c-109 -23 -213 -107 -262 -210 -23 -49 -32 -60 -58 -65
-17 -3 -43 -16 -57 -29 -31 -29 -83 -129 -92 -179 -6 -30 -13 -38 -34 -42
-241 -47 -480 -194 -600 -368 -52 -76 -109 -205 -138 -312 l-27 -100 -1 -390
c0 -428 1 -441 66 -596 87 -211 276 -398 490 -484 75 -31 84 -37 84 -60 0 -23
-8 -28 -81 -54 -340 -117 -592 -409 -659 -763 -12 -65 -15 -175 -15 -583 l0
-504 26 -20 c27 -21 31 -21 989 -21 l962 0 21 23 c21 22 22 32 22 214 0 210
-2 216 -67 229 -26 5 -37 1 -57 -19 -25 -25 -26 -29 -26 -162 l0 -135 -130 0
-130 0 0 435 0 436 -25 24 c-30 30 -64 32 -99 4 l-26 -20 0 -440 0 -439 -445
0 -444 0 -3 436 -3 436 -29 25 c-35 29 -80 26 -109 -8 -16 -19 -17 -57 -17
-455 l0 -434 -131 0 -130 0 3 468 c5 530 4 522 88 697 83 172 214 305 385 389
122 60 135 63 135 34 0 -45 61 -131 117 -164 105 -62 212 -52 310 30 25 21 60
83 77 138 6 21 22 16 133 -39 239 -119 411 -349 459 -613 7 -42 13 -144 14
-231 0 -143 2 -159 21 -183 25 -32 66 -34 103 -5 l26 20 0 185 c0 205 -11 281
-62 420 -33 93 -112 226 -185 310 -101 118 -278 237 -431 288 -61 21 -67 25
-70 53 -3 27 1 31 40 42 203 61 422 262 519 476 33 73 69 197 69 237 0 24 4
27 48 33 80 11 113 26 158 71 83 82 93 207 24 302 -38 52 -86 80 -159 93 l-61
11 0 128 c0 214 -43 362 -152 523 l-39 58 35 71 c38 75 43 105 23 152 -12 27
-10 36 22 99 120 242 -40 517 -315 541 -33 3 -78 1 -100 -4z m230 -683 c19
-14 19 -15 -7 -59 -46 -79 -28 -83 -305 59 -281 143 -263 126 -220 220 l20 43
247 -125 c135 -68 255 -130 265 -138z m-236 -806 c68 -111 154 -222 276 -354
l109 -119 -7 -64 c-19 -185 -124 -377 -271 -497 -73 -59 -218 -131 -305 -151
-93 -22 -259 -21 -352 3 -210 54 -394 203 -489 396 -67 137 -72 168 -77 468
l-4 267 149 0 c305 1 491 53 725 205 l113 74 43 -77 c25 -42 65 -110 90 -151z
m600 -246 c29 -8 56 -60 48 -91 -10 -39 -42 -64 -81 -64 l-35 0 0 78 c0 83 4
95 29 88 9 -2 26 -7 39 -11z m-868 -1201 c0 -92 -1 -97 -29 -125 -23 -23 -38
-29 -71 -29 -33 0 -48 6 -71 29 -28 28 -29 33 -29 125 l0 96 100 0 100 0 0
-96z"/>
<path d="M575 3045 c-37 -36 -32 -71 13 -114 38 -36 96 -61 143 -61 82 0 172
62 172 119 0 67 -72 96 -128 53 -36 -28 -53 -28 -95 3 -43 32 -74 32 -105 0z"/>
<path d="M1138 3056 c-57 -43 -33 -115 52 -159 46 -24 64 -28 106 -24 59 6
106 28 140 64 40 44 28 103 -25 121 -25 9 -38 6 -80 -15 l-50 -26 -40 26 c-44
29 -77 34 -103 13z"/>
<path d="M3700 4441 c-355 -75 -651 -368 -716 -708 -8 -41 -14 -132 -14 -202
l0 -128 -54 -6 c-126 -13 -210 -106 -210 -232 0 -69 23 -122 76 -172 39 -37
75 -53 142 -62 l50 -6 12 -65 c55 -294 263 -546 545 -662 71 -29 79 -35 79
-58 0 -23 -6 -29 -42 -39 -24 -7 -80 -30 -125 -51 -267 -124 -460 -348 -550
-637 l-28 -88 -3 -642 -3 -641 22 -21 c23 -21 25 -21 985 -21 957 0 961 0 988
21 l26 20 0 602 c0 549 -2 610 -19 692 -41 198 -131 365 -271 506 -124 125
-261 210 -410 255 -54 16 -60 21 -60 44 0 23 7 29 64 49 228 80 434 285 526
523 52 135 60 212 60 604 l0 353 73 73 c120 123 184 271 194 453 6 112 -6 153
-64 207 -59 57 -70 58 -470 58 -410 0 -406 1 -419 -66 -5 -28 -2 -40 17 -60
l22 -24 349 0 c213 0 348 -4 348 -9 0 -34 -56 -177 -88 -227 -45 -69 -139
-161 -173 -169 -13 -3 -267 -6 -564 -8 -631 -2 -580 7 -654 -117 -46 -77 -134
-171 -191 -204 l-33 -19 7 73 c33 331 298 607 641 666 63 11 85 19 103 40 27
31 22 68 -15 102 -29 26 -41 26 -153 3z m918 -1168 c-5 -416 -5 -421 -85 -583
-39 -80 -60 -109 -137 -185 -76 -76 -107 -99 -186 -138 -52 -26 -122 -54 -155
-62 -390 -98 -787 127 -907 515 -20 67 -23 95 -23 259 l0 184 52 12 c79 18
176 70 239 128 54 49 145 174 159 217 6 20 19 20 526 20 l520 0 -3 -367z
m-1648 -108 l0 -85 -29 0 c-17 0 -42 10 -57 24 -58 49 -20 146 57 146 l29 0 0
-85z m1000 -1122 c0 -83 -2 -94 -25 -121 -34 -40 -75 -49 -123 -25 -26 13 -41
28 -49 53 -11 33 -18 172 -9 181 2 2 50 4 105 4 l101 0 0 -92z m297 -146 c160
-81 297 -223 378 -391 81 -170 79 -149 83 -788 l3 -568 -130 0 -130 0 -3 536
-3 536 -24 19 c-30 25 -72 24 -99 -1 l-22 -21 0 -534 0 -535 -450 0 -450 0 0
532 0 532 -22 23 c-29 31 -72 30 -103 -2 l-25 -24 0 -531 0 -530 -130 0 -131
0 3 578 3 577 28 85 c67 200 185 355 357 466 69 45 176 94 203 94 7 0 18 -21
25 -46 17 -63 90 -135 161 -159 135 -44 287 36 323 170 l12 43 36 -13 c20 -7
68 -29 107 -48z"/>
<path d="M3525 3215 c-37 -36 -32 -71 14 -115 80 -76 204 -74 289 3 32 30 31
89 -4 116 -34 27 -46 26 -98 -4 -46 -27 -63 -26 -105 7 -33 25 -67 23 -96 -7z"/>
<path d="M4083 3225 c-29 -20 -37 -59 -18 -95 18 -34 84 -76 136 -85 70 -13
176 35 201 91 15 32 -6 79 -41 94 -28 11 -41 8 -104 -26 -27 -15 -31 -14 -67
10 -45 29 -76 33 -107 11z"/>
</g>
</svg>
