<?xml version="1.0" standalone="no"?>
<!DOCTYPE svg PUBLIC "-//W3C//DTD SVG 20010904//EN"
 "http://www.w3.org/TR/2001/REC-SVG-20010904/DTD/svg10.dtd">
<svg version="1.0" xmlns="http://www.w3.org/2000/svg"
 width="624.000000pt" height="351.000000pt" viewBox="0 0 624.000000 351.000000"
 preserveAspectRatio="xMidYMid meet">

<g transform="translate(0.000000,351.000000) scale(0.100000,-0.100000)"
fill="#000000" stroke="none">
<path d="M0 3390 l0 -120 40 0 c29 0 40 4 40 15 0 11 11 15 40 15 22 0 40 5
40 10 0 6 18 10 40 10 29 0 40 4 40 15 0 12 16 15 80 15 64 0 80 3 80 15 0 12
16 15 80 15 47 0 80 4 80 10 0 6 18 10 40 10 29 0 40 4 40 15 0 11 11 15 40
15 22 0 40 -4 40 -10 0 -5 18 -10 40 -10 22 0 40 5 40 10 0 6 47 10 120 10
100 0 120 3 120 15 0 12 16 15 80 15 47 0 80 4 80 10 0 6 47 10 120 10 100 0
120 3 120 15 0 13 -87 15 -720 15 l-720 0 0 -120z"/>
<path d="M1680 3500 c0 -5 18 -10 40 -10 22 0 40 5 40 10 0 6 -18 10 -40 10
-22 0 -40 -4 -40 -10z"/>
<path d="M2160 3500 c0 -6 60 -10 160 -10 100 0 160 4 160 10 0 6 -60 10 -160
10 -100 0 -160 -4 -160 -10z"/>
<path d="M2560 3500 c0 -5 18 -10 40 -10 22 0 40 5 40 10 0 6 -18 10 -40 10
-22 0 -40 -4 -40 -10z"/>
<path d="M2800 3495 c0 -13 29 -15 200 -15 127 0 200 -4 200 -10 0 -6 113 -10
320 -10 278 0 320 -2 320 -15 0 -13 29 -15 200 -15 171 0 200 -2 200 -15 0
-12 16 -15 80 -15 47 0 80 -4 80 -10 0 -6 47 -10 120 -10 100 0 120 -2 120
-15 0 -12 20 -15 120 -15 100 0 120 -2 120 -15 0 -11 11 -15 40 -15 22 0 40
-4 40 -10 0 -6 33 -10 80 -10 64 0 80 -3 80 -15 0 -11 11 -15 40 -15 29 0 40
-4 40 -15 0 -11 11 -15 40 -15 22 0 40 -4 40 -10 0 -6 33 -10 80 -10 64 0 80
-3 80 -15 0 -12 16 -15 80 -15 64 0 80 -3 80 -15 0 -11 11 -15 40 -15 22 0 40
-4 40 -10 0 -6 33 -10 80 -10 64 0 80 -3 80 -15 0 -12 16 -15 80 -15 64 0 80
-3 80 -15 0 -11 11 -15 40 -15 22 0 40 -4 40 -10 0 -5 14 -10 30 -10 17 0 30
-4 30 -10 0 -17 18 -11 23 8 3 12 5 11 6 -6 1 -31 21 -18 22 16 1 24 3 23 9
-8 7 -33 8 -32 11 20 2 30 6 -19 9 -110 5 -130 6 -89 8 188 l2 352 -1475 0
c-977 0 -1475 -3 -1475 -10 0 -5 -18 -10 -40 -10 -22 0 -40 5 -40 10 0 6 -73
10 -200 10 -171 0 -200 -2 -200 -15z"/>
<path d="M2401 3253 c-8 -21 -30 -57 -49 -81 -19 -23 -42 -55 -51 -71 -64
-111 -85 -134 -165 -179 -46 -27 -80 -62 -58 -62 8 0 95 23 130 34 18 6 22 4
23 -16 0 -14 8 -3 20 32 11 30 29 64 41 75 21 20 21 20 13 0 -4 -11 -9 -33
-12 -50 -3 -27 -1 -26 16 12 16 35 26 43 55 49 20 3 48 3 63 -2 16 -4 45 -6
67 -5 23 2 42 -2 46 -10 7 -10 13 -9 32 3 12 8 42 17 66 21 46 6 66 17 45 24
-7 3 -14 3 -15 1 -2 -2 -14 7 -27 19 -32 29 -36 74 -10 104 l21 24 17 -22 c14
-16 21 -19 30 -10 8 8 11 3 11 -20 0 -18 4 -34 9 -37 4 -3 6 5 4 18 -3 13 0
27 6 30 7 4 10 0 9 -11 0 -10 0 -26 0 -36 2 -16 4 -16 27 -1 14 9 25 12 25 7
0 -11 -43 -33 -63 -33 -7 0 -13 -9 -14 -20 -2 -22 1 -23 35 -13 18 4 20 8 10
14 -10 7 -10 9 3 9 27 0 51 35 43 64 -3 14 -10 26 -15 26 -5 0 -28 12 -51 26
-52 33 -145 56 -203 49 -41 -5 -45 -4 -76 35 -18 22 -35 40 -39 40 -3 0 -12
-17 -19 -37z m39 -38 c0 -15 -38 -41 -47 -32 -2 3 0 15 7 26 12 24 40 28 40 6z
m162 -58 c-6 -7 -8 -24 -5 -37 4 -16 3 -21 -5 -16 -7 4 -12 1 -12 -8 0 -31
-21 -26 -36 9 -17 42 -17 44 22 51 16 3 31 10 33 15 1 6 6 8 8 5 3 -3 1 -11
-5 -19z m-47 -96 c3 -5 -4 -12 -14 -16 -12 -3 -18 -12 -15 -20 4 -10 0 -12
-16 -8 -19 5 -19 7 -5 23 8 9 12 20 8 23 -3 4 3 7 15 7 11 0 23 -4 27 -9z m68
-34 c-7 -11 -23 2 -23 19 0 12 2 12 14 2 8 -7 12 -16 9 -21z"/>
<path d="M2395 2940 c-10 -11 -14 -20 -9 -20 5 0 15 9 22 20 7 11 11 20 9 20
-2 0 -12 -9 -22 -20z"/>
<path d="M2520 2936 c-15 -39 -12 -46 6 -13 9 16 13 31 10 34 -3 3 -10 -6 -16
-21z"/>
<path d="M2192 2802 c-36 -53 -44 -84 -15 -61 16 14 58 98 51 104 -2 2 -18
-17 -36 -43z"/>
<path d="M2060 2779 c0 -4 7 -9 15 -13 8 -3 15 -9 15 -13 0 -12 -59 -43 -80
-43 -14 0 -18 -6 -14 -24 3 -19 -2 -26 -26 -34 -31 -11 -43 -25 -12 -16 14 5
14 3 -2 -10 -11 -9 -15 -16 -9 -16 7 0 14 4 18 10 3 5 13 7 23 4 14 -5 15 -4
2 5 -8 6 -12 11 -7 12 44 9 63 21 100 70 53 69 53 74 12 75 -19 0 -35 -3 -35
-7z"/>
<path d="M1981 2596 c-7 -8 -19 -12 -27 -9 -16 6 -19 -13 -3 -23 12 -7 57 32
47 41 -3 3 -11 -1 -17 -9z"/>
<path d="M1992 2548 c-5 -21 -19 -38 -40 -50 -29 -16 -48 -9 -21 8 6 3 9 15 6
25 -3 11 -1 17 4 13 5 -3 9 -1 9 5 0 18 -17 20 -39 5 -15 -11 -19 -20 -13 -27
12 -15 -3 -56 -23 -63 -8 -4 -15 -13 -15 -22 0 -13 2 -13 13 3 13 17 14 17 19
-2 4 -16 0 -19 -26 -20 -59 -2 -66 -3 -66 -13 0 -5 14 -7 30 -5 17 2 30 -1 30
-7 0 -7 4 -7 13 1 8 6 17 8 20 4 4 -3 10 2 13 11 5 12 9 14 14 6 5 -7 15 5 29
32 12 25 32 51 46 58 20 11 22 16 13 27 -9 11 -9 16 1 23 9 5 10 10 2 14 -6 4
-14 -7 -19 -26z m-57 -88 c-3 -5 -12 -10 -18 -10 -7 0 -6 4 3 10 19 12 23 12
15 0z"/>
<path d="M865 2297 c-283 -286 -445 -660 -445 -1024 0 -138 24 -267 81 -438
91 -270 195 -430 385 -592 66 -55 132 -114 147 -131 28 -29 28 -30 9 -36 -11
-4 -32 -22 -47 -41 l-26 -35 758 0 c602 1 755 3 742 13 -9 7 -35 29 -59 51
l-42 38 38 37 c22 20 71 62 109 92 191 152 301 320 389 594 68 214 78 279 73
475 -4 152 -9 190 -35 290 -31 123 -81 250 -97 252 -5 0 -17 13 -26 27 -21 34
-66 81 -77 81 -5 0 -14 10 -21 23 -11 22 -11 22 -5 -3 5 -22 67 -126 94 -158
8 -9 7 -14 -2 -17 -8 -3 -259 -7 -558 -8 l-545 -2 3 24 c1 13 10 30 20 37 14
11 15 15 3 26 -12 11 -13 10 -8 -4 4 -10 2 -18 -5 -18 -7 0 -9 14 -5 40 4 31
2 40 -10 40 -12 0 -14 -11 -10 -59 5 -61 -2 -83 -27 -87 -19 -3 -50 31 -41 45
3 7 0 8 -9 5 -9 -3 -16 -2 -16 4 0 6 -3 18 -7 28 -4 12 -3 15 5 10 7 -4 12 -2
12 3 0 6 -7 11 -16 11 -15 0 -15 2 1 26 12 19 14 29 6 37 -8 8 -11 8 -11 -1 0
-16 -27 -15 -33 1 -3 7 -6 4 -6 -6 -1 -11 -5 -15 -13 -11 -8 5 -4 13 12 26 31
25 19 33 -18 14 -33 -17 -57 -44 -30 -33 22 8 29 -2 17 -25 -8 -14 -8 -23 0
-31 11 -11 16 1 12 30 -2 15 32 10 37 -7 3 -7 0 -10 -7 -6 -14 9 -14 -7 0 -21
19 -19 1 -35 -24 -22 -22 12 -22 12 -3 -9 10 -12 23 -19 28 -16 5 4 16 -3 24
-15 9 -12 20 -19 25 -16 5 4 9 2 9 -4 0 -6 -24 -9 -57 -8 -52 2 -58 4 -56 23
3 28 -26 27 -37 -2 l-9 -23 -293 4 c-403 6 -541 16 -519 38 6 6 11 19 11 29 0
10 7 21 15 24 8 3 26 26 40 50 14 24 37 55 50 68 14 14 25 29 25 33 0 4 18 23
40 42 22 19 39 39 37 45 -5 16 16 34 44 38 13 2 23 9 21 16 -1 8 2 10 8 7 11
-7 60 38 60 56 0 5 5 9 11 9 5 0 7 -4 4 -10 -3 -5 0 -7 9 -4 9 3 12 12 8 22
-5 15 -3 15 11 4 17 -15 81 -7 72 8 -6 10 5 41 14 36 3 -2 12 2 19 10 11 12 9
14 -10 15 -13 0 -2 7 27 15 41 12 155 16 612 21 309 3 581 3 606 -1 31 -5 56
-18 87 -46 61 -55 70 -50 19 10 -40 47 -45 50 -93 51 -28 1 -359 1 -736 1
-379 -1 -674 3 -660 8 24 8 24 8 -5 8 -25 0 -47 -18 -130 -101z m203 38 c2
-22 -8 -32 -59 -63 -81 -49 -239 -184 -318 -271 -35 -39 -66 -69 -68 -67 -2 2
5 21 16 42 12 21 21 43 21 49 0 22 159 210 212 250 7 6 31 24 53 41 48 37 60
42 105 43 31 1 36 -2 38 -24z m0 -552 c-10 -2 -28 -2 -40 0 -13 2 -5 4 17 4
22 1 32 -1 23 -4z m-88 -13 c302 -12 322 -15 361 -47 42 -36 92 -37 108 -2
l11 25 215 3 c174 2 215 0 213 -11 -2 -7 -19 -18 -38 -25 -35 -12 -35 -12 -3
-7 17 3 50 0 72 -7 34 -10 47 -10 78 4 21 9 58 19 83 23 25 3 50 9 55 12 23
14 55 12 55 -3 0 -8 7 -15 15 -15 8 0 15 -4 15 -10 0 -5 19 -10 42 -10 39 0
40 1 22 14 -18 14 -18 15 6 20 56 11 80 13 80 5 0 -5 7 -9 16 -9 8 0 13 -4 9
-9 -9 -15 14 -23 43 -16 15 4 21 10 15 12 -24 9 -13 21 23 27 21 5 41 3 49 -4
10 -8 24 -8 52 -1 21 6 72 14 115 17 l76 7 15 -29 c8 -16 17 -49 20 -74 4 -25
9 -56 13 -70 10 -41 13 -230 4 -290 -14 -91 -67 -299 -90 -355 -4 -11 -13 -40
-20 -65 -7 -25 -17 -58 -23 -75 -20 -53 -114 -190 -164 -236 -51 -47 -178
-136 -226 -157 -98 -43 -275 -89 -410 -107 -27 -4 -59 -8 -70 -11 -12 -2 -80
-4 -152 -5 -135 0 -254 21 -398 70 -224 77 -457 291 -575 526 -41 83 -98 246
-117 335 -22 102 -22 322 0 410 9 36 21 84 27 108 l10 42 61 0 c34 0 172 -5
307 -10z m453 -29 c-4 -3 -10 -10 -14 -14 -3 -4 -11 -2 -18 6 -9 12 -7 15 14
15 14 0 22 -3 18 -7z m647 -1 c0 -13 -11 -13 -30 0 -12 8 -11 10 8 10 12 0 22
-4 22 -10z m337 4 c-3 -3 -12 -4 -19 -1 -8 3 -5 6 6 6 11 1 17 -2 13 -5z
m-444 -31 c-7 -2 -19 -2 -25 0 -7 3 -2 5 12 5 14 0 19 -2 13 -5z"/>
<path d="M1810 1736 c0 -2 7 -6 15 -10 8 -3 15 -1 15 4 0 6 -7 10 -15 10 -8 0
-15 -2 -15 -4z"/>
<path d="M1718 1723 c12 -2 30 -2 40 0 9 3 -1 5 -23 4 -22 0 -30 -2 -17 -4z"/>
<path d="M2635 1720 c-16 -7 -17 -9 -3 -9 9 -1 20 4 23 9 7 11 7 11 -20 0z"/>
<path d="M2138 1713 c7 -3 16 -2 19 1 4 3 -2 6 -13 5 -11 0 -14 -3 -6 -6z"/>
<path d="M1280 1700 c0 -5 5 -10 11 -10 5 0 7 5 4 10 -3 6 -8 10 -11 10 -2 0
-4 -4 -4 -10z"/>
<path d="M2060 1696 c7 -7 13 -7 20 0 6 6 3 10 -10 10 -13 0 -16 -4 -10 -10z"/>
<path d="M1200 1680 c0 -5 9 -10 21 -10 11 0 17 5 14 10 -3 6 -13 10 -21 10
-8 0 -14 -4 -14 -10z"/>
<path d="M1415 1650 c-3 -5 -2 -10 4 -10 5 0 13 5 16 10 3 6 2 10 -4 10 -5 0
-13 -4 -16 -10z"/>
<path d="M1378 1633 c7 -3 16 -2 19 1 4 3 -2 6 -13 5 -11 0 -14 -3 -6 -6z"/>
<path d="M1065 1300 c-3 -5 -1 -10 4 -10 6 0 11 5 11 10 0 6 -2 10 -4 10 -3 0
-8 -4 -11 -10z"/>
<path d="M5200 2391 c0 -5 -89 -8 -202 -7 -495 3 -1278 -6 -1278 -14 0 -6 29
-10 65 -10 l65 0 -10 -25 c-9 -24 -4 -55 9 -55 4 0 14 9 24 20 10 13 12 20 5
20 -23 0 8 21 33 23 13 0 27 6 31 11 8 12 1129 23 1202 12 33 -5 57 -18 92
-49 71 -64 174 -171 174 -181 0 -5 15 -27 34 -50 18 -23 41 -56 50 -74 10 -19
23 -32 29 -29 8 3 12 -7 13 -26 1 -30 1 -29 -59 32 -32 33 -61 61 -63 61 -2 0
18 -33 44 -72 56 -85 96 -164 88 -176 -3 -5 -79 -12 -168 -16 -90 -4 -167 -11
-172 -16 -12 -12 -233 -13 -240 -1 -3 4 -169 8 -370 7 -200 -1 -362 2 -359 7
6 10 -1 9 -31 -7 -24 -12 29 -15 411 -21 241 -4 542 -5 669 -2 127 3 236 2
243 -3 24 -14 53 -225 48 -345 -5 -132 -62 -360 -132 -535 -58 -143 -58 -144
-128 -225 -113 -131 -201 -210 -274 -244 -37 -17 -76 -37 -87 -42 -65 -36
-200 -59 -371 -63 -60 -1 -153 -6 -205 -10 -85 -8 -100 -6 -145 12 -28 12 -70
26 -95 32 -146 36 -290 102 -380 176 -143 117 -278 261 -335 359 -36 61 -79
192 -99 301 -16 89 -28 377 -15 392 3 4 18 55 34 115 l28 107 311 -3 c171 -2
262 -2 201 0 -62 2 -104 7 -97 12 7 4 -65 11 -160 14 -95 4 -186 11 -203 16
-16 5 -24 10 -16 10 11 1 10 4 -3 14 -18 13 -18 15 5 35 12 12 26 22 30 22 12
0 60 82 55 95 -2 7 5 24 17 37 12 13 33 37 47 53 l25 30 -29 -25 c-16 -14 -52
-50 -80 -79 -28 -30 -72 -75 -98 -100 -57 -56 -66 -76 -112 -222 -53 -168 -69
-293 -62 -469 6 -160 24 -258 81 -426 76 -227 189 -399 356 -539 52 -43 113
-99 137 -123 l43 -43 -40 -37 c-23 -21 -41 -41 -41 -45 0 -4 341 -7 758 -7
597 1 754 3 741 13 -9 7 -32 25 -53 42 -20 16 -42 33 -48 36 -12 7 38 55 158
152 96 78 148 134 220 243 67 100 105 184 156 339 54 166 78 274 85 386 11
183 -35 409 -124 604 -46 103 -111 217 -125 223 -4 2 -8 10 -8 17 0 7 -3 15
-7 17 -5 2 -21 23 -38 48 -16 24 -73 89 -126 145 -52 55 -98 108 -102 118 -7
18 -27 24 -27 8z m-757 -2358 c-7 -2 -19 -2 -25 0 -7 3 -2 5 12 5 14 0 19 -2
13 -5z"/>
<path d="M1930 2349 c0 -5 5 -7 10 -4 6 3 10 8 10 11 0 2 -4 4 -10 4 -5 0 -10
-5 -10 -11z"/>
<path d="M1964 2349 c-7 -8 -8 -22 -4 -34 7 -18 9 -18 15 -3 4 9 5 25 3 34 -2
14 -5 15 -14 3z"/>
<path d="M1730 2330 c0 -5 4 -10 9 -10 6 0 13 5 16 10 3 6 -1 10 -9 10 -9 0
-16 -4 -16 -10z"/>
<path d="M1888 2326 c-19 -14 -24 -36 -10 -36 10 0 42 33 42 43 0 11 -13 8
-32 -7z"/>
<path d="M1750 2310 c-8 -5 -12 -12 -9 -15 4 -3 12 1 19 10 14 17 11 19 -10 5z"/>
<path d="M2346 2305 c-3 -8 -12 -12 -20 -9 -8 3 -17 1 -20 -4 -6 -10 92 -57
101 -49 3 3 -5 10 -16 17 -13 6 -21 21 -21 35 0 27 -15 34 -24 10z"/>
<path d="M5115 2312 c-13 -9 -18 -42 -7 -42 5 0 14 6 20 13 13 15 1 39 -13 29z"/>
<path d="M1751 2246 c-9 -11 -9 -16 0 -21 10 -7 28 10 29 28 0 12 -17 8 -29
-7z"/>
<path d="M1882 2248 c-16 -16 -15 -28 3 -28 8 0 15 2 15 4 0 2 3 11 6 20 7 19
-7 21 -24 4z"/>
<path d="M1681 2228 c-10 -17 -10 -22 0 -29 7 -4 18 -5 23 -2 6 4 5 8 -2 11
-10 3 -10 7 -2 17 6 7 7 16 2 18 -4 3 -14 -4 -21 -15z"/>
<path d="M1725 2199 c-4 -6 -5 -12 -2 -15 2 -3 7 2 10 11 7 17 1 20 -8 4z"/>
<path d="M5245 2200 c3 -5 11 -10 16 -10 6 0 7 5 4 10 -3 6 -11 10 -16 10 -6
0 -7 -4 -4 -10z"/>
<path d="M1685 2151 c-3 -5 -1 -12 5 -16 5 -3 10 1 10 9 0 18 -6 21 -15 7z"/>
<path d="M5305 2150 c3 -5 11 -10 16 -10 6 0 7 5 4 10 -3 6 -11 10 -16 10 -6
0 -7 -4 -4 -10z"/>
<path d="M1772 2129 c-11 -17 -10 -23 10 -39 29 -23 42 -12 33 29 -8 36 -25
40 -43 10z"/>
<path d="M1835 2120 c-3 -5 -1 -10 4 -10 6 0 11 5 11 10 0 6 -2 10 -4 10 -3 0
-8 -4 -11 -10z"/>
<path d="M1517 2093 c-4 -3 -7 -11 -7 -17 0 -6 5 -5 12 2 6 6 9 14 7 17 -3 3
-9 2 -12 -2z"/>
<path d="M1647 2080 c-7 -22 -9 -23 -15 -7 -7 17 -9 16 -22 -7 -7 -14 -17 -26
-22 -26 -4 0 -8 -9 -8 -20 0 -11 7 -20 15 -20 9 0 12 -6 9 -15 -4 -8 -2 -15 4
-15 6 0 15 14 21 30 5 17 7 30 4 30 -3 0 2 9 11 19 10 11 16 28 14 38 -3 15
-5 13 -11 -7z"/>
<path d="M1950 2093 c0 -15 29 -49 30 -35 0 7 -7 20 -15 28 -8 9 -15 11 -15 7z"/>
<path d="M2667 2020 c9 -16 21 -30 26 -30 5 0 -1 14 -13 30 -12 17 -24 30 -26
30 -3 0 3 -13 13 -30z"/>
<path d="M1716 2014 c-4 -10 1 -22 11 -30 22 -16 30 -17 38 -4 4 6 11 8 16 5
5 -4 9 3 9 15 0 23 -31 41 -38 21 -3 -8 -8 -9 -17 -1 -9 8 -14 6 -19 -6z"/>
<path d="M1726 1911 c-4 -7 -5 -15 -2 -18 9 -9 19 4 14 18 -4 11 -6 11 -12 0z"/>
<path d="M1740 1829 c0 -5 5 -7 10 -4 6 3 10 8 10 11 0 2 -4 4 -10 4 -5 0 -10
-5 -10 -11z"/>
<path d="M5178 1773 c7 -3 16 -2 19 1 4 3 -2 6 -13 5 -11 0 -14 -3 -6 -6z"/>
<path d="M4128 1763 c7 -3 16 -2 19 1 4 3 -2 6 -13 5 -11 0 -14 -3 -6 -6z"/>
<path d="M3935 1370 c-22 -11 -44 -25 -49 -30 -6 -6 -18 -10 -27 -10 -16 0
-99 -100 -99 -120 0 -17 17 -11 33 13 8 12 18 19 23 14 8 -8 -55 -79 -65 -73
-3 2 -14 -4 -24 -14 -16 -16 -16 -18 5 -45 17 -22 19 -31 10 -46 -14 -22 -15
-39 -3 -39 5 0 11 14 15 31 8 43 60 93 88 85 14 -3 30 1 40 11 11 9 35 17 56
17 46 1 63 11 56 34 -4 12 -3 13 3 4 13 -17 43 -4 43 19 0 10 6 19 13 19 7 0
21 6 32 13 16 13 15 14 -14 9 -26 -3 -30 -1 -25 12 3 9 18 16 33 16 17 0 22 3
13 9 -10 6 -10 10 2 20 8 7 20 10 27 6 8 -6 8 -10 -2 -16 -7 -4 -10 -11 -6
-16 11 -10 27 16 27 43 0 34 -25 46 -98 51 -53 3 -75 -1 -107 -17z m95 -28
c-6 -2 -10 -8 -10 -14 0 -5 -6 -16 -14 -23 -17 -18 -36 0 -33 32 1 18 5 20 24
12 18 -7 23 -5 23 9 0 15 2 15 10 2 6 -10 6 -16 0 -18z m-80 -27 c7 -9 10 -18
6 -22 -7 -8 -56 17 -56 29 0 14 37 9 50 -7z m-60 -28 c-8 -7 -28 -19 -45 -26
l-30 -12 30 25 c32 27 73 39 45 13z"/>
<path d="M5158 1178 c-14 -14 -18 -23 -10 -26 15 -5 62 24 62 38 0 18 -29 11
-52 -12z"/>
<path d="M4857 1097 c-21 -20 -53 -38 -74 -42 -78 -14 -153 -72 -153 -117 0
-32 63 -51 141 -44 43 5 70 3 74 -3 8 -14 26 -14 23 0 -2 6 20 20 47 31 28 11
57 26 66 34 8 8 21 14 27 14 7 0 12 6 12 13 0 8 4 7 10 -3 8 -13 11 -11 16 7
10 36 61 40 154 10 44 -13 80 -21 80 -17 0 12 -50 50 -65 50 -7 0 -18 7 -25
15 -7 8 -20 15 -29 15 -14 0 -14 -2 -1 -10 28 -17 1 -22 -28 -4 -26 15 -29 21
-22 40 9 22 8 22 -15 12 -19 -9 -22 -15 -15 -29 6 -10 10 -20 10 -22 0 -3 -31
-8 -70 -12 -38 -4 -68 -10 -65 -14 2 -5 -11 -13 -30 -18 -24 -8 -37 -8 -41 -1
-4 6 -10 5 -15 -3 -7 -12 -9 -11 -9 1 -1 12 -3 11 -11 -3 -5 -9 -23 -24 -38
-31 -25 -13 -31 -13 -50 0 -11 8 -21 26 -21 39 0 22 2 24 26 15 32 -13 37 -12
29 0 -4 6 6 10 22 11 28 1 28 1 3 8 -43 12 1 21 102 21 67 0 89 3 86 13 -3 6
-28 16 -56 21 -31 5 -52 14 -54 23 -2 10 -14 4 -41 -20z m-128 -138 c-13 -26
-22 -24 -14 2 5 14 3 19 -3 15 -6 -3 -14 -1 -18 5 -4 8 -3 9 4 5 7 -4 12 -2
12 5 0 9 4 8 15 -1 11 -9 12 -17 4 -31z m268 25 c-3 -3 -12 -4 -19 -1 -8 3 -5
6 6 6 11 1 17 -2 13 -5z"/>
<path d="M4069 910 c-16 -4 -25 -14 -27 -30 -3 -25 -2 -25 14 -5 13 16 15 16
11 3 -4 -11 1 -19 14 -23 10 -4 17 -11 14 -16 -4 -5 3 -9 15 -9 12 0 18 -4 15
-10 -3 -5 0 -10 7 -10 8 -1 6 -6 -6 -15 -18 -13 -17 -14 7 -20 14 -4 31 -4 36
0 7 4 11 -3 11 -17 0 -30 15 -52 29 -44 6 4 31 -2 55 -13 25 -11 53 -17 64
-14 11 3 28 -5 42 -20 20 -20 27 -23 42 -13 22 13 23 35 3 42 -8 4 -12 11 -8
17 3 6 1 7 -5 3 -6 -4 -31 13 -55 39 -24 25 -48 45 -53 45 -5 0 -15 9 -22 20
-7 11 -9 20 -6 20 11 0 104 -74 104 -82 0 -4 5 -8 11 -8 8 0 8 5 -1 15 -7 8
-23 34 -35 57 -19 35 -29 43 -69 53 -26 7 -46 8 -46 3 0 -5 -6 -8 -12 -5 -7 2
-13 9 -13 15 0 5 -3 14 -7 18 -9 9 -96 11 -129 4z m72 -33 c-10 -9 -11 -8 -5
6 3 10 9 15 12 12 3 -3 0 -11 -7 -18z m49 -17 c0 -19 -5 -30 -14 -30 -23 0
-29 33 -10 47 24 17 24 17 24 -17z m51 -24 c-7 -8 -19 -12 -27 -9 -13 5 -12 8
2 24 21 23 45 9 25 -15z"/>
<path d="M4040 841 c0 -5 5 -13 10 -16 6 -3 10 -2 10 4 0 5 -4 13 -10 16 -5 3
-10 2 -10 -4z"/>
<path d="M4410 580 c0 -5 5 -10 10 -10 6 0 10 5 10 10 0 6 -4 10 -10 10 -5 0
-10 -4 -10 -10z"/>
<path d="M4412 530 c0 -14 2 -19 5 -12 2 6 2 18 0 25 -3 6 -5 1 -5 -13z"/>
<path d="M0 65 c0 -28 20 -32 59 -11 l24 13 -33 12 c-46 15 -50 14 -50 -14z"/>
<path d="M228 50 c-15 -17 -15 -19 1 -34 21 -19 102 -23 83 -4 -6 6 -25 11
-42 11 -18 0 -30 5 -30 14 0 7 11 13 24 13 14 0 28 5 31 10 11 18 -49 9 -67
-10z"/>
<path d="M160 28 c0 -19 -4 -20 -58 -15 -31 3 -64 2 -72 -3 -10 -7 8 -10 56
-10 57 0 74 4 88 19 15 16 15 19 1 24 -10 5 -15 0 -15 -15z"/>
</g>
</svg>
